{
  "accessors": [
    {
      "bufferView": 2,
      "componentType": 5126,
      "count": 65532,
      "max": [
        64.23401641845703,
        96.36940002441406,
        70.63804626464844
      ],
      "min": [
        -81.25052642822266,
        42.141868591308594,
        -71.8175277709961
      ],
      "type": "VEC3"
    },
    {
      "bufferView": 2,
      "byteOffset": 786384,
      "componentType": 5126,
      "count": 65532,
      "max": [
        1.0,
        1.0,
        1.0
      ],
      "min": [
        -1.0,
        -0.9948757886886597,
        -1.0
      ],
      "type": "VEC3"
    },
    {
      "bufferView": 1,
      "componentType": 5126,
      "count": 65532,
      "max": [
        0.9930400252342224,
        0.27971601486206055
      ],
      "min": [
        0.0,
        0.0
      ],
      "type": "VEC2"
    },
    {
      "bufferView": 0,
      "componentType": 5125,
      "count": 382410,
      "type": "SCALAR"
    },
    {
      "bufferView": 2,
      "byteOffset": 1572768,
      "componentType": 5126,
      "count": 65532,
      "max": [
        98.73452758789063,
        90.11688232421875,
        71.81752014160156
      ],
      "min": [
        -86.48735809326172,
        -85.59091186523438,
        -71.78632354736328
      ],
      "type": "VEC3"
    },
    {
      "bufferView": 2,
      "byteOffset": 2359152,
      "componentType": 5126,
      "count": 65532,
      "max": [
        0.9999896883964539,
        0.9996801614761353,
        0.9999975562095642
      ],
      "min": [
        -0.9983103275299072,
        -0.9300143122673035,
        -0.9961531162261963
      ],
      "type": "VEC3"
    },
    {
      "bufferView": 1,
      "byteOffset": 524256,
      "componentType": 5126,
      "count": 65532,
      "max": [
        0.8301889896392822,
        0.3107120096683502
      ],
      "min": [
        0.006597999949008226,
        0.00018200000340584666
      ],
      "type": "VEC2"
    },
    {
      "bufferView": 0,
      "byteOffset": 1529640,
      "componentType": 5125,
      "count": 365775,
      "type": "SCALAR"
    },
    {
      "bufferView": 2,
      "byteOffset": 3145536,
      "componentType": 5126,
      "count": 65532,
      "max": [
        89.43621826171875,
        90.15795135498047,
        71.786376953125
      ],
      "min": [
        -86.69451141357422,
        -92.46070861816406,
        -71.76602172851563
      ],
      "type": "VEC3"
    },
    {
      "bufferView": 2,
      "byteOffset": 3931920,
      "componentType": 5126,
      "count": 65532,
      "max": [
        0.744256317615509,
        0.8999902606010437,
        0.9999826550483704
      ],
      "min": [
        -0.9536035656929016,
        -0.9992439150810242,
        -0.5433311462402344
      ],
      "type": "VEC3"
    },
    {
      "bufferView": 1,
      "byteOffset": 1048512,
      "componentType": 5126,
      "count": 65532,
      "max": [
        0.4790230095386505,
        0.2406959980726242
      ],
      "min": [
        3.7999998312443495e-05,
        0.0001630000042496249
      ],
      "type": "VEC2"
    },
    {
      "bufferView": 0,
      "byteOffset": 2992740,
      "componentType": 5125,
      "count": 372045,
      "type": "SCALAR"
    },
    {
      "bufferView": 2,
      "byteOffset": 4718304,
      "componentType": 5126,
      "count": 65532,
      "max": [
        97.76280975341797,
        84.17658233642578,
        70.42366027832031
      ],
      "min": [
        -88.09307098388672,
        -96.36940002441406,
        -71.80168914794922
      ],
      "type": "VEC3"
    },
    {
      "bufferView": 2,
      "byteOffset": 5504688,
      "componentType": 5126,
      "count": 65532,
      "max": [
        1.0,
        1.0,
        1.0
      ],
      "min": [
        -1.0,
        -1.0,
        -1.0
      ],
      "type": "VEC3"
    },
    {
      "bufferView": 1,
      "byteOffset": 1572768,
      "componentType": 5126,
      "count": 65532,
      "max": [
        0.9998160004615784,
        0.3129900097846985
      ],
      "min": [
        0.060249000787734985,
        0.00010599999950500205
      ],
      "type": "VEC2"
    },
    {
      "bufferView": 0,
      "byteOffset": 4480920,
      "componentType": 5125,
      "count": 344847,
      "type": "SCALAR"
    },
    {
      "bufferView": 2,
      "byteOffset": 6291072,
      "componentType": 5126,
      "count": 65532,
      "max": [
        98.30043029785156,
        64.43177032470703,
        70.4180908203125
      ],
      "min": [
        -98.73452758789063,
        -76.01931762695313,
        -71.80712127685547
      ],
      "type": "VEC3"
    },
    {
      "bufferView": 2,
      "byteOffset": 7077456,
      "componentType": 5126,
      "count": 65532,
      "max": [
        0.9996469020843506,
        0.9757997989654541,
        0.9998427033424377
      ],
      "min": [
        -0.9999864101409912,
        -0.9983276724815369,
        -0.9999688267707825
      ],
      "type": "VEC3"
    },
    {
      "bufferView": 1,
      "byteOffset": 2097024,
      "componentType": 5126,
      "count": 65532,
      "max": [
        0.998341977596283,
        0.31751400232315063
      ],
      "min": [
        0.20563200116157532,
        0.011885999701917171
      ],
      "type": "VEC2"
    },
    {
      "bufferView": 0,
      "byteOffset": 5860308,
      "componentType": 5125,
      "count": 369570,
      "type": "SCALAR"
    },
    {
      "bufferView": 2,
      "byteOffset": 7863840,
      "componentType": 5126,
      "count": 29700,
      "max": [
        64.76905059814453,
        72.36811065673828,
        71.81752014160156
      ],
      "min": [
        -98.5122299194336,
        -44.51464080810547,
        -71.75267028808594
      ],
      "type": "VEC3"
    },
    {
      "bufferView": 2,
      "byteOffset": 8220240,
      "componentType": 5126,
      "count": 29700,
      "max": [
        0.9994552135467529,
        0.9997470378875732,
        0.9999899864196777
      ],
      "min": [
        -1.0,
        -0.9282668232917786,
        -1.0
      ],
      "type": "VEC3"
    },
    {
      "bufferView": 1,
      "byteOffset": 2621280,
      "componentType": 5126,
      "count": 29700,
      "max": [
        0.8797780275344849,
        0.2669700086116791
      ],
      "min": [
        0.21827800571918488,
        7.999999797903001e-05
      ],
      "type": "VEC2"
    },
    {
      "bufferView": 0,
      "byteOffset": 7338588,
      "componentType": 5125,
      "count": 151698,
      "type": "SCALAR"
    }
  ],
  "asset": {
    "extras": {
      "author": "artur14markel15 (https://sketchfab.com/artur14markel15)",
      "license": "CC-BY-4.0 (http://creativecommons.org/licenses/by/4.0/)",
      "source": "https://sketchfab.com/3d-models/box-embroidered-with-beads-f46e554a568444ceaa0781006c7946c0",
      "title": "Box embroidered with beads"
    },
    "generator": "Sketchfab-12.8.0",
    "version": "2.0"
  },
  "bufferViews": [
    {
      "buffer": 0,
      "byteLength": 7945380,
      "name": "floatBufferViews",
      "target": 34963
    },
    {
      "buffer": 0,
      "byteLength": 2858880,
      "byteOffset": 7945380,
      "byteStride": 8,
      "name": "floatBufferViews",
      "target": 34962
    },
    {
      "buffer": 0,
      "byteLength": 8576640,
      "byteOffset": 10804260,
      "byteStride": 12,
      "name": "floatBufferViews",
      "target": 34962
    }
  ],
  "buffers": [
    {
      "byteLength": 19380900,
      "uri": "scene.bin"
    }
  ],
  "images": [
    {
      "uri": "textures/material_baseColor.png"
    }
  ],
  "materials": [
    {
      "doubleSided": true,
      "name": "material",
      "pbrMetallicRoughness": {
        "baseColorTexture": {
          "index": 0
        },
        "metallicFactor": 0.0
      }
    }
  ],
  "meshes": [
    {
      "name": "Object_0",
      "primitives": [
        {
          "attributes": {
            "NORMAL": 1,
            "POSITION": 0,
            "TEXCOORD_0": 2
          },
          "indices": 3,
          "material": 0,
          "mode": 4
        }
      ]
    },
    {
      "name": "Object_1",
      "primitives": [
        {
          "attributes": {
            "NORMAL": 5,
            "POSITION": 4,
            "TEXCOORD_0": 6
          },
          "indices": 7,
          "material": 0,
          "mode": 4
        }
      ]
    },
    {
      "name": "Object_2",
      "primitives": [
        {
          "attributes": {
            "NORMAL": 9,
            "POSITION": 8,
            "TEXCOORD_0": 10
          },
          "indices": 11,
          "material": 0,
          "mode": 4
        }
      ]
    },
    {
      "name": "Object_3",
      "primitives": [
        {
          "attributes": {
            "NORMAL": 13,
            "POSITION": 12,
            "TEXCOORD_0": 14
          },
          "indices": 15,
          "material": 0,
          "mode": 4
        }
      ]
    },
    {
      "name": "Object_4",
      "primitives": [
        {
          "attributes": {
            "NORMAL": 17,
            "POSITION": 16,
            "TEXCOORD_0": 18
          },
          "indices": 19,
          "material": 0,
          "mode": 4
        }
      ]
    },
    {
      "name": "Object_5",
      "primitives": [
        {
          "attributes": {
            "NORMAL": 21,
            "POSITION": 20,
            "TEXCOORD_0": 22
          },
          "indices": 23,
          "material": 0,
          "mode": 4
        }
      ]
    }
  ],
  "nodes": [
    {
      "children": [
        1
      ],
      "matrix": [
        1.0,
        0.0,
        0.0,
        0.0,
        0.0,
        2.220446049250313e-16,
        -1.0,
        0.0,
        0.0,
        1.0,
        2.220446049250313e-16,
        0.0,
        0.0,
        0.0,
        0.0,
        1.0
      ],
      "name": "Sketchfab_model"
    },
    {
      "children": [
        2,
        3,
        4,
        5,
        6,
        7
      ],
      "name": "file.obj.cleaner.materialmerger.gles"
    },
    {
      "mesh": 0,
      "name": "Object_2"
    },
    {
      "mesh": 1,
      "name": "Object_3"
    },
    {
      "mesh": 2,
      "name": "Object_4"
    },
    {
      "mesh": 3,
      "name": "Object_5"
    },
    {
      "mesh": 4,
      "name": "Object_6"
    },
    {
      "mesh": 5,
      "name": "Object_7"
    }
  ],
  "samplers": [
    {
      "magFilter": 9729,
      "minFilter": 9987,
      "wrapS": 10497,
      "wrapT": 10497
    }
  ],
  "scene": 0,
  "scenes": [
    {
      "name": "Sketchfab_Scene",
      "nodes": [
        0
      ]
    }
  ],
  "textures": [
    {
      "sampler": 0,
      "source": 0
    }
  ]
}
