{
  "accessors": [
    {
      "bufferView": 2,
      "componentType": 5126,
      "count": 526,
      "max": [
        0.45761799812316895,
        0.45761600136756897,
        0.07000499963760376
      ],
      "min": [
        -0.4576199948787689,
        -0.45761799812316895,
        -0.05952500179409981
      ],
      "type": "VEC3"
    },
    {
      "bufferView": 2,
      "byteOffset": 6312,
      "componentType": 5126,
      "count": 526,
      "max": [
        0.9903242588043213,
        0.966980516910553,
        0.9992716312408447
      ],
      "min": [
        -0.9437997341156006,
        -0.9678812623023987,
        -1.0
      ],
      "type": "VEC3"
    },
    {
      "bufferView": 3,
      "componentType": 5126,
      "count": 526,
      "max": [
        0.7431110739707947,
        0.8868386745452881,
        0.9886501431465149,
        1.0
      ],
      "min": [
        -0.8482581377029419,
        -0.9476127624511719,
        -0.9414337277412415,
        1.0
      ],
      "type": "VEC4"
    },
    {
      "bufferView": 1,
      "componentType": 5126,
      "count": 526,
      "max": [
        1.0,
        1.0
      ],
      "min": [
        0.0,
        0.0
      ],
      "type": "VEC2"
    },
    {
      "bufferView": 0,
      "componentType": 5125,
      "count": 1914,
      "type": "SCALAR"
    },
    {
      "bufferView": 2,
      "byteOffset": 12624,
      "componentType": 5126,
      "count": 168,
      "max": [
        0.018143000081181526,
        0.0021210000850260258,
        0.3255920112133026
      ],
      "min": [
        -0.0043299999088048935,
        -0.01840299926698208,
        0.2783749997615814
      ],
      "type": "VEC3"
    },
    {
      "bufferView": 2,
      "byteOffset": 14640,
      "componentType": 5126,
      "count": 168,
      "max": [
        0.9972969889640808,
        0.9745250940322876,
        0.9348787665367126
      ],
      "min": [
        -0.9643372297286987,
        -0.9783096313476563,
        -0.9527433514595032
      ],
      "type": "VEC3"
    },
    {
      "bufferView": 3,
      "byteOffset": 8416,
      "componentType": 5126,
      "count": 168,
      "max": [
        0.9707139730453491,
        0.98719322681427,
        0.9862073659896851,
        1.0
      ],
      "min": [
        -0.9769914150238037,
        -0.9891771078109741,
        -0.9320504069328308,
        -1.0
      ],
      "type": "VEC4"
    },
    {
      "bufferView": 1,
      "byteOffset": 4208,
      "componentType": 5126,
      "count": 168,
      "max": [
        0.7848770022392273,
        0.8782989978790283
      ],
      "min": [
        0.0276040006428957,
        0.7255129814147949
      ],
      "type": "VEC2"
    },
    {
      "bufferView": 0,
      "byteOffset": 7656,
      "componentType": 5125,
      "count": 492,
      "type": "SCALAR"
    },
    {
      "bufferView": 2,
      "byteOffset": 16656,
      "componentType": 5126,
      "count": 769,
      "max": [
        0.13437099754810333,
        0.14507600665092468,
        0.2846449911594391
      ],
      "min": [
        -0.13705599308013916,
        -0.12801800668239594,
        -0.25694501399993896
      ],
      "type": "VEC3"
    },
    {
      "bufferView": 2,
      "byteOffset": 25884,
      "componentType": 5126,
      "count": 769,
      "max": [
        0.9903798699378967,
        0.9999841451644897,
        0.999958336353302
      ],
      "min": [
        -0.9979689717292786,
        -0.9931177496910095,
        -0.9993254542350769
      ],
      "type": "VEC3"
    },
    {
      "bufferView": 3,
      "byteOffset": 11104,
      "componentType": 5126,
      "count": 769,
      "max": [
        0.996906042098999,
        0.9992537498474121,
        0.9270375967025757,
        1.0
      ],
      "min": [
        -0.9988746047019958,
        -0.9981560707092285,
        -0.8154380321502686,
        -1.0
      ],
      "type": "VEC4"
    },
    {
      "bufferView": 1,
      "byteOffset": 5552,
      "componentType": 5126,
      "count": 769,
      "max": [
        1.0,
        1.0
      ],
      "min": [
        0.0,
        0.0
      ],
      "type": "VEC2"
    },
    {
      "bufferView": 0,
      "byteOffset": 9624,
      "componentType": 5125,
      "count": 1401,
      "type": "SCALAR"
    }
  ],
  "asset": {
    "extras": {
      "author": "Leon_dp (https://sketchfab.com/leondp)",
      "license": "CC-BY-4.0 (http://creativecommons.org/licenses/by/4.0/)",
      "source": "https://sketchfab.com/3d-models/low-poly-clay-saucer-and-candle-49aecf57b3eb487ea3234476679a2e90",
      "title": "Low poly clay saucer and candle"
    },
    "generator": "Sketchfab-11.90.0",
    "version": "2.0"
  },
  "bufferViews": [
    {
      "buffer": 0,
      "byteLength": 15228,
      "name": "floatBufferViews",
      "target": 34963
    },
    {
      "buffer": 0,
      "byteLength": 11704,
      "byteOffset": 15228,
      "byteStride": 8,
      "name": "floatBufferViews",
      "target": 34962
    },
    {
      "buffer": 0,
      "byteLength": 35112,
      "byteOffset": 26932,
      "byteStride": 12,
      "name": "floatBufferViews",
      "target": 34962
    },
    {
      "buffer": 0,
      "byteLength": 23408,
      "byteOffset": 62044,
      "byteStride": 16,
      "name": "floatBufferViews",
      "target": 34962
    }
  ],
  "buffers": [
    {
      "byteLength": 85452,
      "uri": "scene.bin"
    }
  ],
  "images": [
    {
      "uri": "textures/metal_baseColor.jpeg"
    },
    {
      "uri": "textures/metal_metallicRoughness.png"
    },
    {
      "uri": "textures/metal_normal.png"
    },
    {
      "uri": "textures/material_baseColor.jpeg"
    },
    {
      "uri": "textures/material_metallicRoughness.png"
    },
    {
      "uri": "textures/material_normal.png"
    }
  ],
  "materials": [
    {
      "doubleSided": true,
      "name": "metal",
      "normalTexture": {
        "index": 2,
        "scale": 0.333
      },
      "occlusionTexture": {
        "index": 1
      },
      "pbrMetallicRoughness": {
        "baseColorTexture": {
          "index": 0
        },
        "metallicRoughnessTexture": {
          "index": 1
        },
        "roughnessFactor": 0.555005806565371
      }
    },
    {
      "doubleSided": true,
      "name": "material",
      "normalTexture": {
        "index": 5
      },
      "occlusionTexture": {
        "index": 4
      },
      "pbrMetallicRoughness": {
        "baseColorTexture": {
          "index": 3
        },
        "metallicRoughnessTexture": {
          "index": 4
        }
      }
    }
  ],
  "meshes": [
    {
      "name": "defaultMaterial",
      "primitives": [
        {
          "attributes": {
            "NORMAL": 1,
            "POSITION": 0,
            "TANGENT": 2,
            "TEXCOORD_0": 3
          },
          "indices": 4,
          "material": 0,
          "mode": 4
        }
      ]
    },
    {
      "name": "defaultMaterial",
      "primitives": [
        {
          "attributes": {
            "NORMAL": 6,
            "POSITION": 5,
            "TANGENT": 7,
            "TEXCOORD_0": 8
          },
          "indices": 9,
          "material": 0,
          "mode": 4
        }
      ]
    },
    {
      "name": "defaultMaterial",
      "primitives": [
        {
          "attributes": {
            "NORMAL": 11,
            "POSITION": 10,
            "TANGENT": 12,
            "TEXCOORD_0": 13
          },
          "indices": 14,
          "material": 1,
          "mode": 4
        }
      ]
    }
  ],
  "nodes": [
    {
      "children": [
        1
      ],
      "matrix": [
        1.0,
        0.0,
        0.0,
        0.0,
        0.0,
        2.220446049250313e-16,
        -1.0,
        0.0,
        0.0,
        1.0,
        2.220446049250313e-16,
        0.0,
        0.0,
        0.0,
        0.0,
        1.0
      ],
      "name": "Sketchfab_model"
    },
    {
      "children": [
        2,
        4
      ],
      "matrix": [
        1.0,
        0.0,
        0.0,
        0.0,
        0.0,
        -4.371139006309477e-08,
        0.999999999999999,
        0.0,
        0.0,
        -0.999999999999999,
        -4.371139006309477e-08,
        0.0,
        0.0,
        0.0,
        0.0,
        1.0
      ],
      "name": "Collada visual scene group"
    },
    {
      "children": [
        3
      ],
      "matrix": [
        100.0,
        0.0,
        0.0,
        0.0,
        0.0,
        -1.6e-05,
        -100.0,
        0.0,
        0.0,
        100.0,
        -1.6e-05,
        0.0,
        -0.851136,
        7.686634,
        -0.693412,
        1.0
      ],
      "name": "candlestick"
    },
    {
      "mesh": 0,
      "name": "defaultMaterial"
    },
    {
      "children": [
        5,
        6
      ],
      "matrix": [
        100.0,
        0.0,
        0.0,
        0.0,
        0.0,
        -1.6e-05,
        -100.0,
        0.0,
        0.0,
        100.0,
        -1.6e-05,
        0.0,
        0.097672,
        30.755499,
        -0.188875,
        1.0
      ],
      "name": "candle"
    },
    {
      "mesh": 1,
      "name": "defaultMaterial"
    },
    {
      "mesh": 2,
      "name": "defaultMaterial"
    }
  ],
  "samplers": [
    {
      "magFilter": 9729,
      "minFilter": 9987,
      "wrapS": 10497,
      "wrapT": 10497
    }
  ],
  "scene": 0,
  "scenes": [
    {
      "name": "Sketchfab_Scene",
      "nodes": [
        0
      ]
    }
  ],
  "textures": [
    {
      "sampler": 0,
      "source": 0
    },
    {
      "sampler": 0,
      "source": 1
    },
    {
      "sampler": 0,
      "source": 2
    },
    {
      "sampler": 0,
      "source": 3
    },
    {
      "sampler": 0,
      "source": 4
    },
    {
      "sampler": 0,
      "source": 5
    }
  ]
}
